<svg preserveAspectRatio="xMidYMid meet" data-bbox="0.004 0 6284.863 2230.586" xmlns="http://www.w3.org/2000/svg" viewBox="0 0 6285 2231" fill-rule="evenodd" clip-rule="evenodd" stroke-linejoin="round" stroke-miterlimit="2" data-type="ugc" role="presentation" aria-hidden="true">

    <g>

        <path fill="#192537" d="M6284.867 0v2230.586H.004V.001h6284.863z"></path>

        <path d="M1968.53 1751.468V1554h28.212v197.467h-28.212zM2225.805 1554H2254v197.467h-23.126l-118.483-147.246v147.246h-28.196V1554h23.127l118.483 147.262V1554zm256.975 0h28.212l-86.603 197.467h-27.928L2309.574 1554h30.48l71.08 162.202L2482.78 1554zm109.747 172.923h115.081v24.544h-143.293V1554h139.358v24.544h-111.146v60.659h99.008v23.976h-99.008v63.744zm246.537 26.795c-14.856 0-29.196-2.301-43.018-6.903-13.823-4.602-24.677-10.572-32.58-17.908l10.437-22.01c7.52 6.77 17.157 12.273 28.912 16.508 11.755 4.235 23.844 6.336 36.249 6.336 16.373 0 28.595-2.768 36.682-8.32 8.087-5.536 12.122-12.923 12.122-22.143 0-6.77-2.201-12.272-6.62-16.49-4.418-4.236-9.87-7.487-16.373-9.738-6.486-2.25-15.657-4.802-27.495-7.62-14.856-3.568-26.845-7.153-35.965-10.72-9.12-3.57-16.924-9.071-23.41-16.508-6.503-7.42-9.738-17.44-9.738-30.03 0-10.537 2.768-20.041 8.32-28.495 5.553-8.47 13.956-15.24 25.245-20.308 11.288-5.086 25.294-7.62 42.034-7.62 11.655 0 23.126 1.5 34.414 4.519 11.289 3 20.976 7.336 29.063 12.972l-9.32 22.56a102.714 102.714 0 00-26.512-11.99c-9.404-2.717-18.625-4.084-27.645-4.084-15.99 0-27.979 2.918-35.965 8.753-7.987 5.82-11.989 13.34-11.989 22.56 0 6.77 2.251 12.272 6.77 16.507 4.518 4.218 10.104 7.52 16.79 9.87 6.67 2.352 15.74 4.836 27.212 7.47 14.856 3.569 26.794 7.154 35.832 10.722 9.02 3.568 16.773 9.02 23.276 16.357 6.486 7.336 9.72 17.207 9.72 29.629 0 10.338-2.817 19.792-8.453 28.345-5.652 8.554-14.206 15.323-25.677 20.309-11.472 4.985-25.578 7.47-42.318 7.47zm182.243-2.251v-172.923h-67.711V1554h163.335v24.544h-67.695v172.923h-27.929zm364.738 0h-27.078l-.284-143.861-71.363 119.884h-12.973l-71.38-119.034v143.01h-27.078V1554h23.127l82.384 138.792L3362.635 1554h23.126l.284 197.467zm115.665-24.544h115.099v24.544h-143.31V1554h139.358v24.544H3501.71v60.659h99.008v23.976h-99.008v63.744zM3832.316 1554h28.212v197.467h-23.126l-118.484-147.246v147.246h-28.212V1554h23.127l118.483 147.262V1554zm154.866 197.467v-172.923h-67.696V1554h163.336v24.544h-67.712v172.923h-27.928zm209.605 2.25c-14.857 0-29.196-2.3-43.019-6.902-13.822-4.602-24.693-10.572-32.58-17.908l10.438-22.01c7.52 6.77 17.157 12.273 28.912 16.508 11.755 4.235 23.827 6.336 36.249 6.336 16.356 0 28.578-2.768 36.665-8.32 8.087-5.536 12.139-12.923 12.139-22.143 0-6.77-2.218-12.272-6.637-16.49-4.418-4.236-9.87-7.487-16.357-9.738-6.486-2.25-15.656-4.802-27.511-7.62-14.856-3.568-26.845-7.153-35.965-10.72-9.12-3.57-16.924-9.071-23.41-16.508-6.486-7.42-9.738-17.44-9.738-30.03 0-10.537 2.785-20.041 8.32-28.495 5.553-8.47 13.973-15.24 25.261-20.308 11.272-5.086 25.294-7.62 42.035-7.62 11.655 0 23.126 1.5 34.414 4.519 11.272 3 20.959 7.336 29.046 12.972l-9.304 22.56a102.967 102.967 0 00-26.511-11.99c-9.404-2.717-18.625-4.084-27.645-4.084-15.99 0-27.979 2.918-35.982 8.753-7.987 5.82-11.989 13.34-11.989 22.56 0 6.77 2.268 12.272 6.77 16.507 4.518 4.218 10.12 7.52 16.79 9.87 6.67 2.352 15.757 4.836 27.228 7.47 14.857 3.569 26.795 7.154 35.816 10.722 9.037 3.568 16.79 9.02 23.276 16.357 6.486 7.336 9.738 17.207 9.738 29.629 0 10.338-2.818 19.792-8.47 28.345-5.636 8.554-14.19 15.323-25.662 20.309-11.471 4.985-25.577 7.47-42.317 7.47z" fill="#b09e80" fill-rule="nonzero"></path>

        <path d="M2979.656 690.853h282.22c7.697.1 14.399-5.49 15.676-13.089l31.354-188.14c.166-.93.249-1.875.249-2.804 0-8.61-7.084-15.677-15.677-15.677-2.853 0-5.657.78-8.096 2.24l-94.626 54.18-55.657-125.432c-2.505-5.673-8.145-9.356-14.333-9.356a15.712 15.712 0 00-14.35 9.356l-55.657 125.433-94.626-54.181a15.782 15.782 0 00-8.096-2.24c-8.593 0-15.677 7.067-15.677 15.677 0 .93.083 1.875.249 2.804l31.354 188.14c1.277 7.598 7.98 13.189 15.693 13.09zm70.555-127.473a15.671 15.671 0 0012.608 1.261 15.7 15.7 0 009.49-8.543l48.457-108.893 48.358 108.893a15.7 15.7 0 009.49 8.543 15.707 15.707 0 0012.707-1.26l81.055-46.335L3248.62 659.5h-255.725l-23.524-142.453 80.84 46.334z" fill="#b09e80" fill-opacity=".98" fill-rule="nonzero"></path>

        <path fill="#b09e80" fill-opacity=".98" d="M5614.31 592.804v24.727H3499.556v-24.727H5614.31z"></path>

        <path fill="#b09e80" fill-opacity=".98" d="M2741.99 592.804v24.727H628.82v-24.727h2113.17z"></path>

        <path d="M769.718 1331.08c-27.67 0-52.099-2.825-73.287-8.492-21.172-5.65-41.612-13.528-61.322-23.582l-6.298-106.324h11.317l44.67 77.375c11.317 9.24 23.598 16.37 36.81 21.388 13.211 5.035 26.722 7.561 40.565 7.561 22.65 0 41.097-5.35 55.355-16.053 14.276-10.686 21.405-26.523 21.405-47.495 0-14.259-3.257-25.991-9.755-35.23-6.498-9.224-17.3-17.915-32.406-26.092-15.09-8.192-35.846-18.147-62.269-29.896-29.78-12.995-52.646-28.517-68.583-46.548-15.937-18.03-23.897-40.465-23.897-67.304 0-16.784 4.304-32.821 12.895-48.126 8.592-15.306 20.125-28.95 34.6-40.898 14.474-11.949 30.61-21.288 48.442-27.985 17.815-6.714 36.161-10.071 55.04-10.071 21.388 0 41.944 2.51 61.654 7.545 19.709 5.035 37.956 12.164 54.724 21.387l6.298 100.658h-10.702l-44.039-71.077c-10.901-8.392-21.487-14.79-31.757-19.194-10.287-4.404-21.92-6.614-34.915-6.614-17.2 0-31.459 5.467-42.776 16.369-11.333 10.901-16.984 25.36-16.984 43.407 0 17.183 6.182 31.342 18.546 42.46 12.381 11.117 33.869 23.581 64.48 37.424 38.172 17.615 66.273 35.646 84.304 54.11 18.03 18.446 27.055 42.775 27.055 72.97 0 26.839-7.761 49.905-23.283 69.199-15.521 19.294-35.43 33.968-59.759 44.038-24.33 10.054-49.705 15.09-76.128 15.09zm451.685-6.282h-201.929v-10.07l53.478-25.792V945.452l-53.478-25.792v-10.054h201.929v10.054l-53.461 25.792v343.484l53.461 25.791v10.07zm256.038 0h-169.224v-10.07l53.478-25.792V946.084l-53.478-26.424v-10.054h119.535l244.073 275.532V944.82l-71.708-25.16v-10.055h168.593v10.054l-52.846 25.792v382.487h-39.003l-271.128-303.218v264.215l71.708 25.791v10.07zm597.013 6.282c-31.043 0-59.776-5.335-86.2-16.037-26.406-10.702-49.373-25.576-68.882-44.67-19.494-19.078-34.7-41.612-45.601-67.62-10.902-26.007-16.352-54.524-16.352-85.55 0-31.044 5.45-59.56 16.352-85.568 10.902-25.992 26.107-48.543 45.6-67.62 19.51-19.078 42.477-33.968 68.883-44.67 26.424-10.686 55.157-16.037 86.2-16.037 31.441 0 60.39 5.351 86.814 16.037 26.406 10.702 49.373 25.592 68.882 44.67 19.494 19.077 34.7 41.628 45.601 67.62 10.902 26.007 16.352 54.524 16.352 85.567 0 31.027-5.45 59.544-16.352 85.551-10.902 26.008-26.107 48.542-45.6 67.62-19.51 19.094-42.477 33.968-68.883 44.67-26.424 10.702-55.373 16.037-86.814 16.037zm10.054-32.705c20.972 0 39.535-6.714 55.67-20.142 16.154-13.41 28.734-32.289 37.758-56.601 9.007-24.33 13.527-52.847 13.527-85.568 0-40.25-5.567-75.48-16.685-105.676-11.1-30.195-26.107-53.577-44.969-70.146-18.878-16.568-40.05-24.844-63.548-24.844-20.956 0-39.618 6.597-55.987 19.809-16.353 13.211-29.249 31.974-38.688 56.303-9.439 24.329-14.142 52.846-14.142 85.55 0 40.267 5.65 75.498 16.984 105.693 11.317 30.196 26.623 53.677 45.916 70.462 19.294 16.768 40.682 25.16 64.164 25.16zm513.97 26.423h-216.403v-10.07l53.461-25.792V945.452l-53.461-25.792v-10.054h201.297c30.196 0 57.15 3.457 80.832 10.37 23.697 6.93 42.36 17.2 56.003 30.827 13.627 13.627 20.44 30.927 20.44 51.9 0 21.387-8.076 41.096-24.229 59.127-16.136 18.047-39.302 30.627-69.514 37.757 40.682 5.45 72.672 17.3 95.938 35.546 23.282 18.23 34.915 41.197 34.915 68.883 0 23.066-7.761 43.723-23.266 61.953-15.522 18.247-36.81 32.605-63.864 43.091-27.038 10.487-57.765 15.738-92.149 15.738zm-46.564-380.592h-21.388v150.977h25.177c27.67 0 49.273-6.614 64.795-19.826 15.505-13.211 23.265-31.142 23.265-53.777 0-51.583-30.61-77.374-91.85-77.374zm22.02 181.804h-43.408v164.189h47.811c31.043 0 55.256-7.761 72.672-23.283 17.4-15.521 26.107-35.43 26.107-59.759 0-27.686-8.924-48.127-26.739-61.338-17.831-13.212-43.307-19.81-76.444-19.81zm522.146 205.07c-36.494 0-68.567-5.966-96.253-17.931-27.686-11.949-49.273-31.442-64.795-58.497-15.521-27.054-23.282-63.216-23.282-108.517V945.452l-54.093-25.792v-10.054h203.192v10.054l-54.109 25.792v201.314c0 34.799 5.351 62.17 16.053 82.094 10.686 19.926 25.16 34.068 43.407 42.46 18.247 8.392 38.472 12.58 60.707 12.58 18.446 0 35.646-3.772 51.583-11.317 15.937-7.544 28.733-19.825 38.372-36.81 9.639-16.983 14.474-39.318 14.474-66.988v-224.58l-59.144-24.545v-10.054h157.276v10.054l-54.093 25.16v201.315c0 45.301-7.561 81.463-22.65 108.517-15.107 27.055-36.08 46.548-62.918 58.497-26.838 11.965-58.08 17.93-93.727 17.93zm522.13-6.282h-201.928v-10.07l53.477-25.792V945.452l-53.477-25.792v-10.054h201.929v10.054l-53.462 25.792v343.484l53.462 25.791v10.07zm112.606 0l-166.067-209.49 172.365-172.365-46.547-23.283v-10.054h148.467v10.054l-41.529 17.616-145.942 140.291 174.875 218.913 44.038 18.247v10.07h-139.66zm401.365 0H3934.64v-10.07l53.477-25.792V945.452l-53.477-25.792v-10.054h197.541v10.054l-49.074 25.792v148.468h174.26V945.452l-50.32-25.792v-10.054h198.156v10.054l-52.846 25.792v343.484l52.846 25.791v10.07h-198.156v-10.07l50.32-25.791v-160.417h-174.26v160.417l49.074 25.791v10.07zm580.012 6.282c-31.026 0-59.76-5.335-86.182-16.037-26.423-10.702-49.39-25.576-68.883-44.67-19.51-19.078-34.7-41.612-45.617-67.62-10.902-26.007-16.353-54.524-16.353-85.55 0-31.044 5.451-59.56 16.353-85.568 10.918-25.992 26.107-48.543 45.617-67.62 19.493-19.078 42.46-33.968 68.883-44.67 26.423-10.686 55.156-16.037 86.182-16.037 31.459 0 60.391 5.351 86.814 16.037 26.423 10.702 49.39 25.592 68.883 44.67 19.51 19.077 34.716 41.628 45.617 67.62 10.902 26.007 16.353 54.524 16.353 85.567 0 31.027-5.451 59.544-16.353 85.551-10.901 26.008-26.107 48.542-45.617 67.62-19.493 19.094-42.46 33.968-68.883 44.67-26.423 10.702-55.355 16.037-86.814 16.037zm10.07-32.705c20.973 0 39.52-6.714 55.672-20.142 16.153-13.41 28.733-32.289 37.74-56.601 9.024-24.33 13.528-52.847 13.528-85.568 0-40.25-5.55-75.48-16.669-105.676-11.117-30.195-26.107-53.577-44.985-70.146-18.862-16.568-40.05-24.844-63.532-24.844-20.972 0-39.635 6.597-55.987 19.809-16.352 13.211-29.248 31.974-38.687 56.303-9.44 24.329-14.16 52.846-14.16 85.55 0 40.267 5.668 75.498 16.985 105.693 11.333 30.196 26.639 53.677 45.933 70.462 19.277 16.768 40.681 25.16 64.163 25.16zm440.353 32.705c-27.67 0-52.099-2.825-73.287-8.492-21.172-5.65-41.629-13.528-61.338-23.582l-6.282-106.324h11.317l44.67 77.375c11.317 9.24 23.581 16.37 36.793 21.388 13.212 5.035 26.739 7.561 40.582 7.561 22.65 0 41.097-5.35 55.355-16.053 14.259-10.686 21.388-26.523 21.388-47.495 0-14.259-3.24-25.991-9.755-35.23-6.497-9.224-17.3-17.915-32.389-26.092-15.106-8.192-35.862-18.147-62.285-29.896-29.764-12.995-52.63-28.517-68.567-46.548-15.937-18.03-23.897-40.465-23.897-67.304 0-16.784 4.287-32.821 12.895-48.126 8.592-15.306 20.125-28.95 34.6-40.898 14.458-11.949 30.61-21.288 48.442-27.985 17.815-6.714 36.161-10.071 55.04-10.071 21.388 0 41.928 2.51 61.654 7.545 19.709 5.035 37.956 12.164 54.724 21.387l6.298 100.658h-10.702l-44.039-71.077c-10.901-8.392-21.487-14.79-31.774-19.194-10.27-4.404-21.903-6.614-34.898-6.614-17.2 0-31.459 5.467-42.792 16.369-11.317 10.901-16.984 25.36-16.984 43.407 0 17.183 6.198 31.342 18.562 42.46 12.381 11.117 33.869 23.581 64.48 37.424 38.172 17.615 66.273 35.646 84.304 54.11 18.03 18.446 27.038 42.775 27.038 72.97 0 26.839-7.744 49.905-23.266 69.199-15.521 19.294-35.446 33.968-59.759 44.038-24.33 10.054-49.705 15.09-76.128 15.09zm451.685-6.282h-201.929v-10.07l53.461-25.792V945.452l-53.461-25.792v-10.054h201.929v10.054l-53.478 25.792v343.484l53.478 25.791v10.07z" fill="#e9e9e9" fill-rule="nonzero"></path>

    </g>

</svg>

